G04 #@! TF.GenerationSoftware,KiCad,Pcbnew,(5.0.2)-1*
G04 #@! TF.CreationDate,2019-10-12T15:34:41+09:00*
G04 #@! TF.ProjectId,relay,72656c61-792e-46b6-9963-61645f706362,rev?*
G04 #@! TF.SameCoordinates,Original*
G04 #@! TF.FileFunction,Soldermask,Top*
G04 #@! TF.FilePolarity,Negative*
%FSLAX46Y46*%
G04 Gerber Fmt 4.6, Leading zero omitted, Abs format (unit mm)*
G04 Created by KiCad (PCBNEW (5.0.2)-1) date 2019/10/12 15:34:41*
%MOMM*%
%LPD*%
G01*
G04 APERTURE LIST*
%ADD10C,0.100000*%
G04 APERTURE END LIST*
D10*
G36*
X146476000Y-144401000D02*
X145524000Y-144401000D01*
X145524000Y-141949000D01*
X146476000Y-141949000D01*
X146476000Y-144401000D01*
X146476000Y-144401000D01*
G37*
G36*
X142476000Y-144401000D02*
X141524000Y-144401000D01*
X141524000Y-141949000D01*
X142476000Y-141949000D01*
X142476000Y-144401000D01*
X142476000Y-144401000D01*
G37*
G36*
X144476000Y-142051000D02*
X143524000Y-142051000D01*
X143524000Y-139599000D01*
X144476000Y-139599000D01*
X144476000Y-142051000D01*
X144476000Y-142051000D01*
G37*
G36*
X148476000Y-142051000D02*
X147524000Y-142051000D01*
X147524000Y-139599000D01*
X148476000Y-139599000D01*
X148476000Y-142051000D01*
X148476000Y-142051000D01*
G37*
G36*
X158777396Y-137885546D02*
X158950466Y-137957234D01*
X159106230Y-138061312D01*
X159238688Y-138193770D01*
X159342766Y-138349534D01*
X159414454Y-138522604D01*
X159451000Y-138706333D01*
X159451000Y-138893667D01*
X159414454Y-139077396D01*
X159342766Y-139250466D01*
X159238688Y-139406230D01*
X159106230Y-139538688D01*
X158950466Y-139642766D01*
X158777396Y-139714454D01*
X158593667Y-139751000D01*
X158406333Y-139751000D01*
X158222604Y-139714454D01*
X158049534Y-139642766D01*
X157893770Y-139538688D01*
X157761312Y-139406230D01*
X157657234Y-139250466D01*
X157585546Y-139077396D01*
X157549000Y-138893667D01*
X157549000Y-138706333D01*
X157585546Y-138522604D01*
X157657234Y-138349534D01*
X157761312Y-138193770D01*
X157893770Y-138061312D01*
X158049534Y-137957234D01*
X158222604Y-137885546D01*
X158406333Y-137849000D01*
X158593667Y-137849000D01*
X158777396Y-137885546D01*
X158777396Y-137885546D01*
G37*
G36*
X158777396Y-135385546D02*
X158950466Y-135457234D01*
X159106230Y-135561312D01*
X159238688Y-135693770D01*
X159342766Y-135849534D01*
X159414454Y-136022604D01*
X159451000Y-136206333D01*
X159451000Y-136393667D01*
X159414454Y-136577396D01*
X159342766Y-136750466D01*
X159238688Y-136906230D01*
X159106230Y-137038688D01*
X158950466Y-137142766D01*
X158777396Y-137214454D01*
X158593667Y-137251000D01*
X158406333Y-137251000D01*
X158222604Y-137214454D01*
X158049534Y-137142766D01*
X157893770Y-137038688D01*
X157761312Y-136906230D01*
X157657234Y-136750466D01*
X157585546Y-136577396D01*
X157549000Y-136393667D01*
X157549000Y-136206333D01*
X157585546Y-136022604D01*
X157657234Y-135849534D01*
X157761312Y-135693770D01*
X157893770Y-135561312D01*
X158049534Y-135457234D01*
X158222604Y-135385546D01*
X158406333Y-135349000D01*
X158593667Y-135349000D01*
X158777396Y-135385546D01*
X158777396Y-135385546D01*
G37*
G36*
X145375256Y-133391298D02*
X145481579Y-133412447D01*
X145782042Y-133536903D01*
X146035611Y-133706333D01*
X146052454Y-133717587D01*
X146282413Y-133947546D01*
X146282415Y-133947549D01*
X146463097Y-134217958D01*
X146541081Y-134406227D01*
X146587553Y-134518422D01*
X146626547Y-134714454D01*
X146651000Y-134837391D01*
X146651000Y-135162609D01*
X146592396Y-135457234D01*
X146587553Y-135481578D01*
X146463098Y-135782040D01*
X146282413Y-136052454D01*
X146052454Y-136282413D01*
X146052451Y-136282415D01*
X145782042Y-136463097D01*
X145481579Y-136587553D01*
X145375256Y-136608702D01*
X145162611Y-136651000D01*
X144837389Y-136651000D01*
X144624744Y-136608702D01*
X144518421Y-136587553D01*
X144217958Y-136463097D01*
X143947549Y-136282415D01*
X143947546Y-136282413D01*
X143717587Y-136052454D01*
X143536902Y-135782040D01*
X143412447Y-135481578D01*
X143407605Y-135457234D01*
X143349000Y-135162609D01*
X143349000Y-134837391D01*
X143373454Y-134714454D01*
X143412447Y-134518422D01*
X143458920Y-134406227D01*
X143536903Y-134217958D01*
X143717585Y-133947549D01*
X143717587Y-133947546D01*
X143947546Y-133717587D01*
X143964389Y-133706333D01*
X144217958Y-133536903D01*
X144518421Y-133412447D01*
X144624744Y-133391298D01*
X144837389Y-133349000D01*
X145162611Y-133349000D01*
X145375256Y-133391298D01*
X145375256Y-133391298D01*
G37*
G36*
X158777396Y-132885546D02*
X158950466Y-132957234D01*
X159106230Y-133061312D01*
X159238688Y-133193770D01*
X159342766Y-133349534D01*
X159414454Y-133522604D01*
X159451000Y-133706333D01*
X159451000Y-133893667D01*
X159414454Y-134077396D01*
X159342766Y-134250466D01*
X159238688Y-134406230D01*
X159106230Y-134538688D01*
X158950466Y-134642766D01*
X158777396Y-134714454D01*
X158593667Y-134751000D01*
X158406333Y-134751000D01*
X158222604Y-134714454D01*
X158049534Y-134642766D01*
X157893770Y-134538688D01*
X157761312Y-134406230D01*
X157657234Y-134250466D01*
X157585546Y-134077396D01*
X157549000Y-133893667D01*
X157549000Y-133706333D01*
X157585546Y-133522604D01*
X157657234Y-133349534D01*
X157761312Y-133193770D01*
X157893770Y-133061312D01*
X158049534Y-132957234D01*
X158222604Y-132885546D01*
X158406333Y-132849000D01*
X158593667Y-132849000D01*
X158777396Y-132885546D01*
X158777396Y-132885546D01*
G37*
G36*
X159451000Y-132251000D02*
X157549000Y-132251000D01*
X157549000Y-130349000D01*
X159451000Y-130349000D01*
X159451000Y-132251000D01*
X159451000Y-132251000D01*
G37*
G36*
X158777396Y-97885546D02*
X158950466Y-97957234D01*
X159106230Y-98061312D01*
X159238688Y-98193770D01*
X159342766Y-98349534D01*
X159414454Y-98522604D01*
X159451000Y-98706333D01*
X159451000Y-98893667D01*
X159414454Y-99077396D01*
X159342766Y-99250466D01*
X159238688Y-99406230D01*
X159106230Y-99538688D01*
X158950466Y-99642766D01*
X158777396Y-99714454D01*
X158593667Y-99751000D01*
X158406333Y-99751000D01*
X158222604Y-99714454D01*
X158049534Y-99642766D01*
X157893770Y-99538688D01*
X157761312Y-99406230D01*
X157657234Y-99250466D01*
X157585546Y-99077396D01*
X157549000Y-98893667D01*
X157549000Y-98706333D01*
X157585546Y-98522604D01*
X157657234Y-98349534D01*
X157761312Y-98193770D01*
X157893770Y-98061312D01*
X158049534Y-97957234D01*
X158222604Y-97885546D01*
X158406333Y-97849000D01*
X158593667Y-97849000D01*
X158777396Y-97885546D01*
X158777396Y-97885546D01*
G37*
G36*
X158777396Y-95385546D02*
X158950466Y-95457234D01*
X159106230Y-95561312D01*
X159238688Y-95693770D01*
X159342766Y-95849534D01*
X159414454Y-96022604D01*
X159451000Y-96206333D01*
X159451000Y-96393667D01*
X159414454Y-96577396D01*
X159342766Y-96750466D01*
X159238688Y-96906230D01*
X159106230Y-97038688D01*
X158950466Y-97142766D01*
X158777396Y-97214454D01*
X158593667Y-97251000D01*
X158406333Y-97251000D01*
X158222604Y-97214454D01*
X158049534Y-97142766D01*
X157893770Y-97038688D01*
X157761312Y-96906230D01*
X157657234Y-96750466D01*
X157585546Y-96577396D01*
X157549000Y-96393667D01*
X157549000Y-96206333D01*
X157585546Y-96022604D01*
X157657234Y-95849534D01*
X157761312Y-95693770D01*
X157893770Y-95561312D01*
X158049534Y-95457234D01*
X158222604Y-95385546D01*
X158406333Y-95349000D01*
X158593667Y-95349000D01*
X158777396Y-95385546D01*
X158777396Y-95385546D01*
G37*
G36*
X145375256Y-93391298D02*
X145481579Y-93412447D01*
X145782042Y-93536903D01*
X146035611Y-93706333D01*
X146052454Y-93717587D01*
X146282413Y-93947546D01*
X146282415Y-93947549D01*
X146463097Y-94217958D01*
X146541081Y-94406227D01*
X146587553Y-94518422D01*
X146626547Y-94714454D01*
X146651000Y-94837391D01*
X146651000Y-95162609D01*
X146592396Y-95457234D01*
X146587553Y-95481578D01*
X146463098Y-95782040D01*
X146282413Y-96052454D01*
X146052454Y-96282413D01*
X146052451Y-96282415D01*
X145782042Y-96463097D01*
X145481579Y-96587553D01*
X145375256Y-96608702D01*
X145162611Y-96651000D01*
X144837389Y-96651000D01*
X144624744Y-96608702D01*
X144518421Y-96587553D01*
X144217958Y-96463097D01*
X143947549Y-96282415D01*
X143947546Y-96282413D01*
X143717587Y-96052454D01*
X143536902Y-95782040D01*
X143412447Y-95481578D01*
X143407605Y-95457234D01*
X143349000Y-95162609D01*
X143349000Y-94837391D01*
X143373454Y-94714454D01*
X143412447Y-94518422D01*
X143458920Y-94406227D01*
X143536903Y-94217958D01*
X143717585Y-93947549D01*
X143717587Y-93947546D01*
X143947546Y-93717587D01*
X143964389Y-93706333D01*
X144217958Y-93536903D01*
X144518421Y-93412447D01*
X144624744Y-93391298D01*
X144837389Y-93349000D01*
X145162611Y-93349000D01*
X145375256Y-93391298D01*
X145375256Y-93391298D01*
G37*
G36*
X158777396Y-92885546D02*
X158950466Y-92957234D01*
X159106230Y-93061312D01*
X159238688Y-93193770D01*
X159342766Y-93349534D01*
X159414454Y-93522604D01*
X159451000Y-93706333D01*
X159451000Y-93893667D01*
X159414454Y-94077396D01*
X159342766Y-94250466D01*
X159238688Y-94406230D01*
X159106230Y-94538688D01*
X158950466Y-94642766D01*
X158777396Y-94714454D01*
X158593667Y-94751000D01*
X158406333Y-94751000D01*
X158222604Y-94714454D01*
X158049534Y-94642766D01*
X157893770Y-94538688D01*
X157761312Y-94406230D01*
X157657234Y-94250466D01*
X157585546Y-94077396D01*
X157549000Y-93893667D01*
X157549000Y-93706333D01*
X157585546Y-93522604D01*
X157657234Y-93349534D01*
X157761312Y-93193770D01*
X157893770Y-93061312D01*
X158049534Y-92957234D01*
X158222604Y-92885546D01*
X158406333Y-92849000D01*
X158593667Y-92849000D01*
X158777396Y-92885546D01*
X158777396Y-92885546D01*
G37*
G36*
X159451000Y-92251000D02*
X157549000Y-92251000D01*
X157549000Y-90349000D01*
X159451000Y-90349000D01*
X159451000Y-92251000D01*
X159451000Y-92251000D01*
G37*
G36*
X158777396Y-57885546D02*
X158950466Y-57957234D01*
X159106230Y-58061312D01*
X159238688Y-58193770D01*
X159342766Y-58349534D01*
X159414454Y-58522604D01*
X159451000Y-58706333D01*
X159451000Y-58893667D01*
X159414454Y-59077396D01*
X159342766Y-59250466D01*
X159238688Y-59406230D01*
X159106230Y-59538688D01*
X158950466Y-59642766D01*
X158777396Y-59714454D01*
X158593667Y-59751000D01*
X158406333Y-59751000D01*
X158222604Y-59714454D01*
X158049534Y-59642766D01*
X157893770Y-59538688D01*
X157761312Y-59406230D01*
X157657234Y-59250466D01*
X157585546Y-59077396D01*
X157549000Y-58893667D01*
X157549000Y-58706333D01*
X157585546Y-58522604D01*
X157657234Y-58349534D01*
X157761312Y-58193770D01*
X157893770Y-58061312D01*
X158049534Y-57957234D01*
X158222604Y-57885546D01*
X158406333Y-57849000D01*
X158593667Y-57849000D01*
X158777396Y-57885546D01*
X158777396Y-57885546D01*
G37*
G36*
X158777396Y-55385546D02*
X158950466Y-55457234D01*
X159106230Y-55561312D01*
X159238688Y-55693770D01*
X159342766Y-55849534D01*
X159414454Y-56022604D01*
X159451000Y-56206333D01*
X159451000Y-56393667D01*
X159414454Y-56577396D01*
X159342766Y-56750466D01*
X159238688Y-56906230D01*
X159106230Y-57038688D01*
X158950466Y-57142766D01*
X158777396Y-57214454D01*
X158593667Y-57251000D01*
X158406333Y-57251000D01*
X158222604Y-57214454D01*
X158049534Y-57142766D01*
X157893770Y-57038688D01*
X157761312Y-56906230D01*
X157657234Y-56750466D01*
X157585546Y-56577396D01*
X157549000Y-56393667D01*
X157549000Y-56206333D01*
X157585546Y-56022604D01*
X157657234Y-55849534D01*
X157761312Y-55693770D01*
X157893770Y-55561312D01*
X158049534Y-55457234D01*
X158222604Y-55385546D01*
X158406333Y-55349000D01*
X158593667Y-55349000D01*
X158777396Y-55385546D01*
X158777396Y-55385546D01*
G37*
G36*
X145375256Y-53391298D02*
X145481579Y-53412447D01*
X145782042Y-53536903D01*
X146035611Y-53706333D01*
X146052454Y-53717587D01*
X146282413Y-53947546D01*
X146282415Y-53947549D01*
X146463097Y-54217958D01*
X146541081Y-54406227D01*
X146587553Y-54518422D01*
X146626547Y-54714454D01*
X146651000Y-54837391D01*
X146651000Y-55162609D01*
X146592396Y-55457234D01*
X146587553Y-55481578D01*
X146463098Y-55782040D01*
X146282413Y-56052454D01*
X146052454Y-56282413D01*
X146052451Y-56282415D01*
X145782042Y-56463097D01*
X145481579Y-56587553D01*
X145375256Y-56608702D01*
X145162611Y-56651000D01*
X144837389Y-56651000D01*
X144624744Y-56608702D01*
X144518421Y-56587553D01*
X144217958Y-56463097D01*
X143947549Y-56282415D01*
X143947546Y-56282413D01*
X143717587Y-56052454D01*
X143536902Y-55782040D01*
X143412447Y-55481578D01*
X143407605Y-55457234D01*
X143349000Y-55162609D01*
X143349000Y-54837391D01*
X143373454Y-54714454D01*
X143412447Y-54518422D01*
X143458920Y-54406227D01*
X143536903Y-54217958D01*
X143717585Y-53947549D01*
X143717587Y-53947546D01*
X143947546Y-53717587D01*
X143964389Y-53706333D01*
X144217958Y-53536903D01*
X144518421Y-53412447D01*
X144624744Y-53391298D01*
X144837389Y-53349000D01*
X145162611Y-53349000D01*
X145375256Y-53391298D01*
X145375256Y-53391298D01*
G37*
G36*
X158777396Y-52885546D02*
X158950466Y-52957234D01*
X159106230Y-53061312D01*
X159238688Y-53193770D01*
X159342766Y-53349534D01*
X159414454Y-53522604D01*
X159451000Y-53706333D01*
X159451000Y-53893667D01*
X159414454Y-54077396D01*
X159342766Y-54250466D01*
X159238688Y-54406230D01*
X159106230Y-54538688D01*
X158950466Y-54642766D01*
X158777396Y-54714454D01*
X158593667Y-54751000D01*
X158406333Y-54751000D01*
X158222604Y-54714454D01*
X158049534Y-54642766D01*
X157893770Y-54538688D01*
X157761312Y-54406230D01*
X157657234Y-54250466D01*
X157585546Y-54077396D01*
X157549000Y-53893667D01*
X157549000Y-53706333D01*
X157585546Y-53522604D01*
X157657234Y-53349534D01*
X157761312Y-53193770D01*
X157893770Y-53061312D01*
X158049534Y-52957234D01*
X158222604Y-52885546D01*
X158406333Y-52849000D01*
X158593667Y-52849000D01*
X158777396Y-52885546D01*
X158777396Y-52885546D01*
G37*
G36*
X159451000Y-52251000D02*
X157549000Y-52251000D01*
X157549000Y-50349000D01*
X159451000Y-50349000D01*
X159451000Y-52251000D01*
X159451000Y-52251000D01*
G37*
G36*
X148476000Y-50401000D02*
X147524000Y-50401000D01*
X147524000Y-47949000D01*
X148476000Y-47949000D01*
X148476000Y-50401000D01*
X148476000Y-50401000D01*
G37*
G36*
X144476000Y-50401000D02*
X143524000Y-50401000D01*
X143524000Y-47949000D01*
X144476000Y-47949000D01*
X144476000Y-50401000D01*
X144476000Y-50401000D01*
G37*
G36*
X146476000Y-48051000D02*
X145524000Y-48051000D01*
X145524000Y-45599000D01*
X146476000Y-45599000D01*
X146476000Y-48051000D01*
X146476000Y-48051000D01*
G37*
G36*
X142476000Y-48051000D02*
X141524000Y-48051000D01*
X141524000Y-45599000D01*
X142476000Y-45599000D01*
X142476000Y-48051000D01*
X142476000Y-48051000D01*
G37*
M02*
