G04 #@! TF.GenerationSoftware,KiCad,Pcbnew,(5.0.2)-1*
G04 #@! TF.CreationDate,2019-10-12T15:34:41+09:00*
G04 #@! TF.ProjectId,relay,72656c61-792e-46b6-9963-61645f706362,rev?*
G04 #@! TF.SameCoordinates,Original*
G04 #@! TF.FileFunction,Legend,Bot*
G04 #@! TF.FilePolarity,Positive*
%FSLAX46Y46*%
G04 Gerber Fmt 4.6, Leading zero omitted, Abs format (unit mm)*
G04 Created by KiCad (PCBNEW (5.0.2)-1) date 2019/10/12 15:34:41*
%MOMM*%
%LPD*%
G01*
G04 APERTURE LIST*
%ADD10C,0.150000*%
G04 APERTURE END LIST*
D10*
G04 #@! TO.C,J1*
X161300000Y-91500000D02*
X161300000Y-98600000D01*
X160900000Y-90800000D02*
X161500000Y-90800000D01*
X161500000Y-90800000D02*
X161500000Y-91500000D01*
X161500000Y-91500000D02*
X160900000Y-91500000D01*
X160900000Y-99300000D02*
X161500000Y-99300000D01*
X161500000Y-99300000D02*
X161500000Y-98600000D01*
X161500000Y-98600000D02*
X160900000Y-98600000D01*
X161800000Y-89300000D02*
X161800000Y-90200000D01*
X161800000Y-99900000D02*
X161800000Y-101300000D01*
X156800000Y-99900000D02*
X155800000Y-99900000D01*
X155800000Y-99900000D02*
X155800000Y-101300000D01*
X160900000Y-99900000D02*
X161800000Y-99900000D01*
X155800000Y-89300000D02*
X155800000Y-90200000D01*
X156800000Y-90200000D02*
X155800000Y-90200000D01*
X161800000Y-90200000D02*
X160900000Y-90200000D01*
X160900000Y-100400000D02*
X160900000Y-89700000D01*
X156800000Y-89700000D02*
X156800000Y-100400000D01*
X158500000Y-89700000D02*
X156800000Y-89700000D01*
X158500000Y-89700000D02*
X160900000Y-89700000D01*
X158500000Y-100400000D02*
X156800000Y-100400000D01*
X158500000Y-100400000D02*
X160900000Y-100400000D01*
X161800000Y-89300000D02*
X161800000Y-88800000D01*
X161800000Y-88800000D02*
X155800000Y-88800000D01*
X155800000Y-88800000D02*
X155800000Y-89300000D01*
X155800000Y-101300000D02*
X161800000Y-101300000D01*
G04 #@! TO.C,J2*
X155800000Y-61300000D02*
X161800000Y-61300000D01*
X155800000Y-48800000D02*
X155800000Y-49300000D01*
X161800000Y-48800000D02*
X155800000Y-48800000D01*
X161800000Y-49300000D02*
X161800000Y-48800000D01*
X158500000Y-60400000D02*
X160900000Y-60400000D01*
X158500000Y-60400000D02*
X156800000Y-60400000D01*
X158500000Y-49700000D02*
X160900000Y-49700000D01*
X158500000Y-49700000D02*
X156800000Y-49700000D01*
X156800000Y-49700000D02*
X156800000Y-60400000D01*
X160900000Y-60400000D02*
X160900000Y-49700000D01*
X161800000Y-50200000D02*
X160900000Y-50200000D01*
X156800000Y-50200000D02*
X155800000Y-50200000D01*
X155800000Y-49300000D02*
X155800000Y-50200000D01*
X160900000Y-59900000D02*
X161800000Y-59900000D01*
X155800000Y-59900000D02*
X155800000Y-61300000D01*
X156800000Y-59900000D02*
X155800000Y-59900000D01*
X161800000Y-59900000D02*
X161800000Y-61300000D01*
X161800000Y-49300000D02*
X161800000Y-50200000D01*
X161500000Y-58600000D02*
X160900000Y-58600000D01*
X161500000Y-59300000D02*
X161500000Y-58600000D01*
X160900000Y-59300000D02*
X161500000Y-59300000D01*
X161500000Y-51500000D02*
X160900000Y-51500000D01*
X161500000Y-50800000D02*
X161500000Y-51500000D01*
X160900000Y-50800000D02*
X161500000Y-50800000D01*
X161300000Y-51500000D02*
X161300000Y-58600000D01*
G04 #@! TO.C,J3*
X161300000Y-131500000D02*
X161300000Y-138600000D01*
X160900000Y-130800000D02*
X161500000Y-130800000D01*
X161500000Y-130800000D02*
X161500000Y-131500000D01*
X161500000Y-131500000D02*
X160900000Y-131500000D01*
X160900000Y-139300000D02*
X161500000Y-139300000D01*
X161500000Y-139300000D02*
X161500000Y-138600000D01*
X161500000Y-138600000D02*
X160900000Y-138600000D01*
X161800000Y-129300000D02*
X161800000Y-130200000D01*
X161800000Y-139900000D02*
X161800000Y-141300000D01*
X156800000Y-139900000D02*
X155800000Y-139900000D01*
X155800000Y-139900000D02*
X155800000Y-141300000D01*
X160900000Y-139900000D02*
X161800000Y-139900000D01*
X155800000Y-129300000D02*
X155800000Y-130200000D01*
X156800000Y-130200000D02*
X155800000Y-130200000D01*
X161800000Y-130200000D02*
X160900000Y-130200000D01*
X160900000Y-140400000D02*
X160900000Y-129700000D01*
X156800000Y-129700000D02*
X156800000Y-140400000D01*
X158500000Y-129700000D02*
X156800000Y-129700000D01*
X158500000Y-129700000D02*
X160900000Y-129700000D01*
X158500000Y-140400000D02*
X156800000Y-140400000D01*
X158500000Y-140400000D02*
X160900000Y-140400000D01*
X161800000Y-129300000D02*
X161800000Y-128800000D01*
X161800000Y-128800000D02*
X155800000Y-128800000D01*
X155800000Y-128800000D02*
X155800000Y-129300000D01*
X155800000Y-141300000D02*
X161800000Y-141300000D01*
G04 #@! TO.C,J1*
X155452380Y-94466666D02*
X156166666Y-94466666D01*
X156309523Y-94419047D01*
X156404761Y-94323809D01*
X156452380Y-94180952D01*
X156452380Y-94085714D01*
X156452380Y-95466666D02*
X156452380Y-94895238D01*
X156452380Y-95180952D02*
X155452380Y-95180952D01*
X155595238Y-95085714D01*
X155690476Y-94990476D01*
X155738095Y-94895238D01*
G04 #@! TO.C,J2*
X155452380Y-54466666D02*
X156166666Y-54466666D01*
X156309523Y-54419047D01*
X156404761Y-54323809D01*
X156452380Y-54180952D01*
X156452380Y-54085714D01*
X155547619Y-54895238D02*
X155500000Y-54942857D01*
X155452380Y-55038095D01*
X155452380Y-55276190D01*
X155500000Y-55371428D01*
X155547619Y-55419047D01*
X155642857Y-55466666D01*
X155738095Y-55466666D01*
X155880952Y-55419047D01*
X156452380Y-54847619D01*
X156452380Y-55466666D01*
G04 #@! TO.C,J3*
X155452380Y-134466666D02*
X156166666Y-134466666D01*
X156309523Y-134419047D01*
X156404761Y-134323809D01*
X156452380Y-134180952D01*
X156452380Y-134085714D01*
X155452380Y-134847619D02*
X155452380Y-135466666D01*
X155833333Y-135133333D01*
X155833333Y-135276190D01*
X155880952Y-135371428D01*
X155928571Y-135419047D01*
X156023809Y-135466666D01*
X156261904Y-135466666D01*
X156357142Y-135419047D01*
X156404761Y-135371428D01*
X156452380Y-135276190D01*
X156452380Y-134990476D01*
X156404761Y-134895238D01*
X156357142Y-134847619D01*
G04 #@! TD*
M02*
