G04 #@! TF.GenerationSoftware,KiCad,Pcbnew,(5.0.2)-1*
G04 #@! TF.CreationDate,2019-10-12T15:34:41+09:00*
G04 #@! TF.ProjectId,relay,72656c61-792e-46b6-9963-61645f706362,rev?*
G04 #@! TF.SameCoordinates,Original*
G04 #@! TF.FileFunction,Copper,L1,Top*
G04 #@! TF.FilePolarity,Positive*
%FSLAX46Y46*%
G04 Gerber Fmt 4.6, Leading zero omitted, Abs format (unit mm)*
G04 Created by KiCad (PCBNEW (5.0.2)-1) date 2019/10/12 15:34:41*
%MOMM*%
%LPD*%
G01*
G04 APERTURE LIST*
G04 #@! TA.AperFunction,SMDPad,CuDef*
%ADD10R,0.850000X2.350000*%
G04 #@! TD*
G04 #@! TA.AperFunction,ComponentPad*
%ADD11R,1.800000X1.800000*%
G04 #@! TD*
G04 #@! TA.AperFunction,ComponentPad*
%ADD12C,1.800000*%
G04 #@! TD*
G04 #@! TA.AperFunction,ViaPad*
%ADD13C,0.800000*%
G04 #@! TD*
G04 #@! TA.AperFunction,Conductor*
%ADD14C,0.600000*%
G04 #@! TD*
G04 #@! TA.AperFunction,Conductor*
%ADD15C,0.254000*%
G04 #@! TD*
G04 APERTURE END LIST*
D10*
G04 #@! TO.P,J5,1*
G04 #@! TO.N,GND*
X142000000Y-143175000D03*
G04 #@! TO.P,J5,3*
G04 #@! TO.N,/CANH*
X146000000Y-143175000D03*
G04 #@! TO.P,J5,2*
G04 #@! TO.N,VCC*
X144000000Y-140825000D03*
G04 #@! TO.P,J5,4*
G04 #@! TO.N,/CANL*
X148000000Y-140825000D03*
G04 #@! TD*
G04 #@! TO.P,J4,2*
G04 #@! TO.N,VCC*
X144000000Y-49175000D03*
G04 #@! TO.P,J4,4*
G04 #@! TO.N,/CANL*
X148000000Y-49175000D03*
G04 #@! TO.P,J4,1*
G04 #@! TO.N,GND*
X142000000Y-46825000D03*
G04 #@! TO.P,J4,3*
G04 #@! TO.N,/CANH*
X146000000Y-46825000D03*
G04 #@! TD*
D11*
G04 #@! TO.P,J1,1*
G04 #@! TO.N,GND*
X158500000Y-91300000D03*
D12*
G04 #@! TO.P,J1,2*
G04 #@! TO.N,VCC*
X158500000Y-93800000D03*
G04 #@! TO.P,J1,3*
G04 #@! TO.N,/CANH*
X158500000Y-96300000D03*
G04 #@! TO.P,J1,4*
G04 #@! TO.N,/CANL*
X158500000Y-98800000D03*
G04 #@! TD*
G04 #@! TO.P,J2,4*
G04 #@! TO.N,/CANL*
X158500000Y-58800000D03*
G04 #@! TO.P,J2,3*
G04 #@! TO.N,/CANH*
X158500000Y-56300000D03*
G04 #@! TO.P,J2,2*
G04 #@! TO.N,VCC*
X158500000Y-53800000D03*
D11*
G04 #@! TO.P,J2,1*
G04 #@! TO.N,GND*
X158500000Y-51300000D03*
G04 #@! TD*
G04 #@! TO.P,J3,1*
G04 #@! TO.N,GND*
X158500000Y-131300000D03*
D12*
G04 #@! TO.P,J3,2*
G04 #@! TO.N,VCC*
X158500000Y-133800000D03*
G04 #@! TO.P,J3,3*
G04 #@! TO.N,/CANH*
X158500000Y-136300000D03*
G04 #@! TO.P,J3,4*
G04 #@! TO.N,/CANL*
X158500000Y-138800000D03*
G04 #@! TD*
D13*
G04 #@! TO.N,GND*
X142500000Y-140000000D03*
X142500000Y-137500000D03*
X142500000Y-135000000D03*
X142500000Y-132500000D03*
X142500000Y-130000000D03*
X142500000Y-127500000D03*
X145000000Y-130000000D03*
X145000000Y-127500000D03*
X145000000Y-125000000D03*
X142500000Y-125000000D03*
X142500000Y-122500000D03*
X145000000Y-122500000D03*
X145000000Y-120000000D03*
X142500000Y-120000000D03*
X142500000Y-117500000D03*
X145000000Y-117500000D03*
X145000000Y-115000000D03*
X142500000Y-115000000D03*
X142500000Y-112500000D03*
X145000000Y-112500000D03*
X145000000Y-110000000D03*
X142500000Y-110000000D03*
X142500000Y-107500000D03*
X145000000Y-107500000D03*
X145000000Y-105000000D03*
X142500000Y-105000000D03*
X142500000Y-102500000D03*
X145000000Y-102500000D03*
X145000000Y-100000000D03*
X142500000Y-100000000D03*
X142500000Y-97500000D03*
X145000000Y-97500000D03*
X145000000Y-132500000D03*
X145000000Y-70000000D03*
X145000000Y-75000000D03*
X145000000Y-62500000D03*
X145000000Y-82500000D03*
X142500000Y-80000000D03*
X145000000Y-60000000D03*
X142500000Y-75000000D03*
X142500000Y-72500000D03*
X145000000Y-72500000D03*
X142500000Y-85000000D03*
X145000000Y-87500000D03*
X145000000Y-80000000D03*
X145000000Y-85000000D03*
X145000000Y-77500000D03*
X145000000Y-65000000D03*
X142500000Y-62500000D03*
X142500000Y-77500000D03*
X142500000Y-90000000D03*
X142500000Y-82500000D03*
X142500000Y-87500000D03*
X145000000Y-67500000D03*
X142500000Y-70000000D03*
X142500000Y-65000000D03*
X145000000Y-90000000D03*
X142500000Y-67500000D03*
X142500000Y-92500000D03*
X142500000Y-60000000D03*
X145000000Y-57500000D03*
X145000000Y-92500000D03*
X142500000Y-57500000D03*
X152500000Y-87500000D03*
X152500000Y-65000000D03*
X152500000Y-62500000D03*
X152500000Y-75000000D03*
X152500000Y-70000000D03*
X152500000Y-82500000D03*
X152500000Y-67500000D03*
X152500000Y-85000000D03*
X152500000Y-72500000D03*
X152500000Y-77500000D03*
X152500000Y-80000000D03*
X152500000Y-60000000D03*
X152500000Y-57500000D03*
X152500000Y-90000000D03*
X152500000Y-110000000D03*
X152500000Y-107500000D03*
X152500000Y-105000000D03*
X152500000Y-102500000D03*
X152500000Y-122500000D03*
X152500000Y-112500000D03*
X152500000Y-125000000D03*
X152500000Y-117500000D03*
X152500000Y-127500000D03*
X152500000Y-115000000D03*
X152500000Y-120000000D03*
X152500000Y-130000000D03*
X152500000Y-100000000D03*
X152500000Y-97500000D03*
X152500000Y-137500000D03*
X157500000Y-47500000D03*
X157500000Y-62500000D03*
X157500000Y-65000000D03*
X157500000Y-67500000D03*
X157500000Y-70000000D03*
X157500000Y-72500000D03*
X157500000Y-75000000D03*
X157500000Y-77500000D03*
X157500000Y-80000000D03*
X157500000Y-82500000D03*
X157500000Y-85000000D03*
X157500000Y-87500000D03*
X157500000Y-102500000D03*
X157500000Y-105000000D03*
X157500000Y-107500000D03*
X157500000Y-110000000D03*
X157500000Y-112500000D03*
X157500000Y-115000000D03*
X157500000Y-117500000D03*
X157500000Y-120000000D03*
X157500000Y-122500000D03*
X157500000Y-125000000D03*
X157500000Y-127500000D03*
G04 #@! TO.N,/CANH*
X156400000Y-136300000D03*
X154900000Y-46800000D03*
G04 #@! TO.N,/CANL*
X154900000Y-138900000D03*
X154900000Y-49200000D03*
X154900000Y-98800000D03*
X154900000Y-58800000D03*
G04 #@! TD*
D14*
G04 #@! TO.N,/CANH*
X146000000Y-143175000D02*
X153225000Y-143175000D01*
X153225000Y-143175000D02*
X156400000Y-140000000D01*
X156400000Y-140000000D02*
X156400000Y-136300000D01*
X156400000Y-136300000D02*
X158500000Y-136300000D01*
X146025000Y-46800000D02*
X146000000Y-46825000D01*
X154900000Y-46800000D02*
X146025000Y-46800000D01*
G04 #@! TO.N,/CANL*
X148000000Y-140825000D02*
X152975000Y-140825000D01*
X152975000Y-140825000D02*
X154900000Y-138900000D01*
X148025000Y-49200000D02*
X148000000Y-49175000D01*
X154900000Y-49200000D02*
X148025000Y-49200000D01*
X158500000Y-98800000D02*
X154900000Y-98800000D01*
X158500000Y-58800000D02*
X154900000Y-58800000D01*
G04 #@! TD*
D15*
G04 #@! TO.N,VCC*
G36*
X145172775Y-48166607D02*
X145267150Y-48307850D01*
X145408393Y-48402225D01*
X145575000Y-48435365D01*
X146425000Y-48435365D01*
X146591607Y-48402225D01*
X146670143Y-48349749D01*
X146873000Y-48552606D01*
X146873000Y-50500000D01*
X146882667Y-50548601D01*
X146910197Y-50589803D01*
X147410197Y-51089803D01*
X147451399Y-51117333D01*
X147500000Y-51127000D01*
X150625000Y-51127000D01*
X150673601Y-51117333D01*
X150714803Y-51089803D01*
X151071941Y-50732665D01*
X151235366Y-50664972D01*
X152806644Y-52236250D01*
X152847846Y-52263780D01*
X153701399Y-52617333D01*
X153750000Y-52627000D01*
X157557946Y-52627000D01*
X157600000Y-52635365D01*
X159400000Y-52635365D01*
X159442054Y-52627000D01*
X159447394Y-52627000D01*
X159873000Y-53052606D01*
X159873000Y-54447394D01*
X159447394Y-54873000D01*
X153750000Y-54873000D01*
X153701399Y-54882667D01*
X152847846Y-55236220D01*
X152806644Y-55263750D01*
X151763750Y-56306644D01*
X151736220Y-56347846D01*
X151382667Y-57201399D01*
X151373000Y-57250000D01*
X151373000Y-90250000D01*
X151382667Y-90298601D01*
X151736220Y-91152154D01*
X151763750Y-91193356D01*
X152806644Y-92236250D01*
X152847846Y-92263780D01*
X153701399Y-92617333D01*
X153750000Y-92627000D01*
X157557946Y-92627000D01*
X157600000Y-92635365D01*
X159400000Y-92635365D01*
X159442054Y-92627000D01*
X159447394Y-92627000D01*
X159873000Y-93052606D01*
X159873000Y-94447394D01*
X159447394Y-94873000D01*
X153750000Y-94873000D01*
X153701399Y-94882667D01*
X152847846Y-95236220D01*
X152806644Y-95263750D01*
X151763750Y-96306644D01*
X151736220Y-96347846D01*
X151382667Y-97201399D01*
X151373000Y-97250000D01*
X151373000Y-130250000D01*
X151382667Y-130298601D01*
X151736220Y-131152154D01*
X151763750Y-131193356D01*
X152806644Y-132236250D01*
X152848281Y-132263959D01*
X153701820Y-132613808D01*
X153750927Y-132623293D01*
X157424203Y-132596084D01*
X157433393Y-132602225D01*
X157600000Y-132635365D01*
X159400000Y-132635365D01*
X159485598Y-132618339D01*
X159873000Y-133002881D01*
X159873000Y-134397670D01*
X159446745Y-134827095D01*
X153749045Y-134869299D01*
X153700951Y-134879144D01*
X152847412Y-135236401D01*
X152806644Y-135263750D01*
X151763750Y-136306644D01*
X151736220Y-136347846D01*
X151382667Y-137201399D01*
X151373000Y-137250000D01*
X151373000Y-138447394D01*
X150947394Y-138873000D01*
X147500000Y-138873000D01*
X147451399Y-138882667D01*
X147410197Y-138910197D01*
X146910197Y-139410197D01*
X146882667Y-139451399D01*
X146873000Y-139500000D01*
X146873000Y-141447394D01*
X146670143Y-141650251D01*
X146591607Y-141597775D01*
X146425000Y-141564635D01*
X145575000Y-141564635D01*
X145408393Y-141597775D01*
X145267150Y-141692150D01*
X145172775Y-141833393D01*
X145164897Y-141873000D01*
X143802606Y-141873000D01*
X143377000Y-141447394D01*
X143377000Y-137552606D01*
X143802606Y-137127000D01*
X146500000Y-137127000D01*
X146548601Y-137117333D01*
X146589803Y-137089803D01*
X147089803Y-136589803D01*
X147117333Y-136548601D01*
X147127000Y-136500000D01*
X147127000Y-53500000D01*
X147117333Y-53451399D01*
X147089803Y-53410197D01*
X146589803Y-52910197D01*
X146548601Y-52882667D01*
X146500000Y-52873000D01*
X143802606Y-52873000D01*
X143377000Y-52447394D01*
X143377000Y-48552606D01*
X143802606Y-48127000D01*
X145164897Y-48127000D01*
X145172775Y-48166607D01*
X145172775Y-48166607D01*
G37*
X145172775Y-48166607D02*
X145267150Y-48307850D01*
X145408393Y-48402225D01*
X145575000Y-48435365D01*
X146425000Y-48435365D01*
X146591607Y-48402225D01*
X146670143Y-48349749D01*
X146873000Y-48552606D01*
X146873000Y-50500000D01*
X146882667Y-50548601D01*
X146910197Y-50589803D01*
X147410197Y-51089803D01*
X147451399Y-51117333D01*
X147500000Y-51127000D01*
X150625000Y-51127000D01*
X150673601Y-51117333D01*
X150714803Y-51089803D01*
X151071941Y-50732665D01*
X151235366Y-50664972D01*
X152806644Y-52236250D01*
X152847846Y-52263780D01*
X153701399Y-52617333D01*
X153750000Y-52627000D01*
X157557946Y-52627000D01*
X157600000Y-52635365D01*
X159400000Y-52635365D01*
X159442054Y-52627000D01*
X159447394Y-52627000D01*
X159873000Y-53052606D01*
X159873000Y-54447394D01*
X159447394Y-54873000D01*
X153750000Y-54873000D01*
X153701399Y-54882667D01*
X152847846Y-55236220D01*
X152806644Y-55263750D01*
X151763750Y-56306644D01*
X151736220Y-56347846D01*
X151382667Y-57201399D01*
X151373000Y-57250000D01*
X151373000Y-90250000D01*
X151382667Y-90298601D01*
X151736220Y-91152154D01*
X151763750Y-91193356D01*
X152806644Y-92236250D01*
X152847846Y-92263780D01*
X153701399Y-92617333D01*
X153750000Y-92627000D01*
X157557946Y-92627000D01*
X157600000Y-92635365D01*
X159400000Y-92635365D01*
X159442054Y-92627000D01*
X159447394Y-92627000D01*
X159873000Y-93052606D01*
X159873000Y-94447394D01*
X159447394Y-94873000D01*
X153750000Y-94873000D01*
X153701399Y-94882667D01*
X152847846Y-95236220D01*
X152806644Y-95263750D01*
X151763750Y-96306644D01*
X151736220Y-96347846D01*
X151382667Y-97201399D01*
X151373000Y-97250000D01*
X151373000Y-130250000D01*
X151382667Y-130298601D01*
X151736220Y-131152154D01*
X151763750Y-131193356D01*
X152806644Y-132236250D01*
X152848281Y-132263959D01*
X153701820Y-132613808D01*
X153750927Y-132623293D01*
X157424203Y-132596084D01*
X157433393Y-132602225D01*
X157600000Y-132635365D01*
X159400000Y-132635365D01*
X159485598Y-132618339D01*
X159873000Y-133002881D01*
X159873000Y-134397670D01*
X159446745Y-134827095D01*
X153749045Y-134869299D01*
X153700951Y-134879144D01*
X152847412Y-135236401D01*
X152806644Y-135263750D01*
X151763750Y-136306644D01*
X151736220Y-136347846D01*
X151382667Y-137201399D01*
X151373000Y-137250000D01*
X151373000Y-138447394D01*
X150947394Y-138873000D01*
X147500000Y-138873000D01*
X147451399Y-138882667D01*
X147410197Y-138910197D01*
X146910197Y-139410197D01*
X146882667Y-139451399D01*
X146873000Y-139500000D01*
X146873000Y-141447394D01*
X146670143Y-141650251D01*
X146591607Y-141597775D01*
X146425000Y-141564635D01*
X145575000Y-141564635D01*
X145408393Y-141597775D01*
X145267150Y-141692150D01*
X145172775Y-141833393D01*
X145164897Y-141873000D01*
X143802606Y-141873000D01*
X143377000Y-141447394D01*
X143377000Y-137552606D01*
X143802606Y-137127000D01*
X146500000Y-137127000D01*
X146548601Y-137117333D01*
X146589803Y-137089803D01*
X147089803Y-136589803D01*
X147117333Y-136548601D01*
X147127000Y-136500000D01*
X147127000Y-53500000D01*
X147117333Y-53451399D01*
X147089803Y-53410197D01*
X146589803Y-52910197D01*
X146548601Y-52882667D01*
X146500000Y-52873000D01*
X143802606Y-52873000D01*
X143377000Y-52447394D01*
X143377000Y-48552606D01*
X143802606Y-48127000D01*
X145164897Y-48127000D01*
X145172775Y-48166607D01*
G04 #@! TO.N,GND*
G36*
X160495891Y-45568636D02*
X160960621Y-45752635D01*
X161364992Y-46046427D01*
X161683599Y-46431556D01*
X161896416Y-46883818D01*
X161994556Y-47398282D01*
X161998000Y-47507875D01*
X161998001Y-142468406D01*
X161931364Y-142995890D01*
X161747364Y-143460622D01*
X161453571Y-143864994D01*
X161068442Y-144183600D01*
X160616183Y-144396416D01*
X160101718Y-144494556D01*
X159992124Y-144498000D01*
X146830926Y-144498000D01*
X146860365Y-144350000D01*
X146860365Y-143902000D01*
X153153405Y-143902000D01*
X153225000Y-143916241D01*
X153296595Y-143902000D01*
X153296599Y-143902000D01*
X153508661Y-143859818D01*
X153749137Y-143699137D01*
X153789696Y-143638436D01*
X156863441Y-140564692D01*
X156924136Y-140524137D01*
X156964692Y-140463441D01*
X156964694Y-140463439D01*
X157084818Y-140283661D01*
X157121748Y-140098000D01*
X157127000Y-140071599D01*
X157127000Y-140071596D01*
X157141241Y-140000001D01*
X157127000Y-139928406D01*
X157127000Y-137027000D01*
X157364799Y-137027000D01*
X157375024Y-137051685D01*
X157748315Y-137424976D01*
X158050149Y-137550000D01*
X157748315Y-137675024D01*
X157375024Y-138048315D01*
X157173000Y-138536043D01*
X157173000Y-139063957D01*
X157375024Y-139551685D01*
X157748315Y-139924976D01*
X158236043Y-140127000D01*
X158763957Y-140127000D01*
X159251685Y-139924976D01*
X159624976Y-139551685D01*
X159827000Y-139063957D01*
X159827000Y-138536043D01*
X159624976Y-138048315D01*
X159251685Y-137675024D01*
X158949851Y-137550000D01*
X159251685Y-137424976D01*
X159624976Y-137051685D01*
X159827000Y-136563957D01*
X159827000Y-136036043D01*
X159624976Y-135548315D01*
X159457690Y-135381029D01*
X159503177Y-135380692D01*
X159664880Y-135347593D01*
X159803065Y-135254518D01*
X160303051Y-134750814D01*
X160394497Y-134613406D01*
X160427000Y-134450000D01*
X160427000Y-132950000D01*
X160393889Y-132785134D01*
X160300814Y-132646949D01*
X159800828Y-132150653D01*
X159660493Y-132058008D01*
X159496851Y-132026716D01*
X153832579Y-132068673D01*
X153137743Y-131783873D01*
X152215546Y-130861676D01*
X151927000Y-130165063D01*
X151927000Y-97334937D01*
X152215546Y-96638324D01*
X153138324Y-95715546D01*
X153834937Y-95427000D01*
X157496339Y-95427000D01*
X157375024Y-95548315D01*
X157173000Y-96036043D01*
X157173000Y-96563957D01*
X157375024Y-97051685D01*
X157748315Y-97424976D01*
X158050149Y-97550000D01*
X157748315Y-97675024D01*
X157375024Y-98048315D01*
X157364799Y-98073000D01*
X155305923Y-98073000D01*
X155064501Y-97973000D01*
X154735499Y-97973000D01*
X154431542Y-98098903D01*
X154198903Y-98331542D01*
X154073000Y-98635499D01*
X154073000Y-98964501D01*
X154198903Y-99268458D01*
X154431542Y-99501097D01*
X154735499Y-99627000D01*
X155064501Y-99627000D01*
X155305923Y-99527000D01*
X157364799Y-99527000D01*
X157375024Y-99551685D01*
X157748315Y-99924976D01*
X158236043Y-100127000D01*
X158763957Y-100127000D01*
X159251685Y-99924976D01*
X159624976Y-99551685D01*
X159827000Y-99063957D01*
X159827000Y-98536043D01*
X159624976Y-98048315D01*
X159251685Y-97675024D01*
X158949851Y-97550000D01*
X159251685Y-97424976D01*
X159624976Y-97051685D01*
X159827000Y-96563957D01*
X159827000Y-96036043D01*
X159624976Y-95548315D01*
X159503054Y-95426393D01*
X159663406Y-95394497D01*
X159801935Y-95301935D01*
X160301935Y-94801935D01*
X160394497Y-94663406D01*
X160427000Y-94500000D01*
X160427000Y-93000000D01*
X160394497Y-92836594D01*
X160301935Y-92698065D01*
X159801935Y-92198065D01*
X159663406Y-92105503D01*
X159500000Y-92073000D01*
X153834937Y-92073000D01*
X153138324Y-91784454D01*
X152215546Y-90861676D01*
X151927000Y-90165063D01*
X151927000Y-57334937D01*
X152215546Y-56638324D01*
X153138324Y-55715546D01*
X153834937Y-55427000D01*
X157496339Y-55427000D01*
X157375024Y-55548315D01*
X157173000Y-56036043D01*
X157173000Y-56563957D01*
X157375024Y-57051685D01*
X157748315Y-57424976D01*
X158050149Y-57550000D01*
X157748315Y-57675024D01*
X157375024Y-58048315D01*
X157364799Y-58073000D01*
X155305923Y-58073000D01*
X155064501Y-57973000D01*
X154735499Y-57973000D01*
X154431542Y-58098903D01*
X154198903Y-58331542D01*
X154073000Y-58635499D01*
X154073000Y-58964501D01*
X154198903Y-59268458D01*
X154431542Y-59501097D01*
X154735499Y-59627000D01*
X155064501Y-59627000D01*
X155305923Y-59527000D01*
X157364799Y-59527000D01*
X157375024Y-59551685D01*
X157748315Y-59924976D01*
X158236043Y-60127000D01*
X158763957Y-60127000D01*
X159251685Y-59924976D01*
X159624976Y-59551685D01*
X159827000Y-59063957D01*
X159827000Y-58536043D01*
X159624976Y-58048315D01*
X159251685Y-57675024D01*
X158949851Y-57550000D01*
X159251685Y-57424976D01*
X159624976Y-57051685D01*
X159827000Y-56563957D01*
X159827000Y-56036043D01*
X159624976Y-55548315D01*
X159503054Y-55426393D01*
X159663406Y-55394497D01*
X159801935Y-55301935D01*
X160301935Y-54801935D01*
X160394497Y-54663406D01*
X160427000Y-54500000D01*
X160427000Y-53000000D01*
X160394497Y-52836594D01*
X160301935Y-52698065D01*
X159801935Y-52198065D01*
X159663406Y-52105503D01*
X159500000Y-52073000D01*
X153834937Y-52073000D01*
X153138324Y-51784454D01*
X151567100Y-50213230D01*
X151428571Y-50120668D01*
X151265165Y-50088165D01*
X151101759Y-50120668D01*
X150836594Y-50230503D01*
X150698065Y-50323065D01*
X150448130Y-50573000D01*
X148789545Y-50573000D01*
X148827225Y-50516607D01*
X148860365Y-50350000D01*
X148860365Y-49927000D01*
X154494077Y-49927000D01*
X154735499Y-50027000D01*
X155064501Y-50027000D01*
X155368458Y-49901097D01*
X155601097Y-49668458D01*
X155727000Y-49364501D01*
X155727000Y-49035499D01*
X155601097Y-48731542D01*
X155368458Y-48498903D01*
X155064501Y-48373000D01*
X154735499Y-48373000D01*
X154494077Y-48473000D01*
X148860365Y-48473000D01*
X148860365Y-48000000D01*
X148827225Y-47833393D01*
X148732850Y-47692150D01*
X148591607Y-47597775D01*
X148425000Y-47564635D01*
X147575000Y-47564635D01*
X147408393Y-47597775D01*
X147267150Y-47692150D01*
X147172775Y-47833393D01*
X147139635Y-48000000D01*
X147139635Y-48035765D01*
X146860365Y-47756495D01*
X146860365Y-47527000D01*
X154494077Y-47527000D01*
X154735499Y-47627000D01*
X155064501Y-47627000D01*
X155368458Y-47501097D01*
X155601097Y-47268458D01*
X155727000Y-46964501D01*
X155727000Y-46635499D01*
X155601097Y-46331542D01*
X155368458Y-46098903D01*
X155064501Y-45973000D01*
X154735499Y-45973000D01*
X154494077Y-46073000D01*
X146860365Y-46073000D01*
X146860365Y-45650000D01*
X146830926Y-45502000D01*
X159968414Y-45502000D01*
X160495891Y-45568636D01*
X160495891Y-45568636D01*
G37*
X160495891Y-45568636D02*
X160960621Y-45752635D01*
X161364992Y-46046427D01*
X161683599Y-46431556D01*
X161896416Y-46883818D01*
X161994556Y-47398282D01*
X161998000Y-47507875D01*
X161998001Y-142468406D01*
X161931364Y-142995890D01*
X161747364Y-143460622D01*
X161453571Y-143864994D01*
X161068442Y-144183600D01*
X160616183Y-144396416D01*
X160101718Y-144494556D01*
X159992124Y-144498000D01*
X146830926Y-144498000D01*
X146860365Y-144350000D01*
X146860365Y-143902000D01*
X153153405Y-143902000D01*
X153225000Y-143916241D01*
X153296595Y-143902000D01*
X153296599Y-143902000D01*
X153508661Y-143859818D01*
X153749137Y-143699137D01*
X153789696Y-143638436D01*
X156863441Y-140564692D01*
X156924136Y-140524137D01*
X156964692Y-140463441D01*
X156964694Y-140463439D01*
X157084818Y-140283661D01*
X157121748Y-140098000D01*
X157127000Y-140071599D01*
X157127000Y-140071596D01*
X157141241Y-140000001D01*
X157127000Y-139928406D01*
X157127000Y-137027000D01*
X157364799Y-137027000D01*
X157375024Y-137051685D01*
X157748315Y-137424976D01*
X158050149Y-137550000D01*
X157748315Y-137675024D01*
X157375024Y-138048315D01*
X157173000Y-138536043D01*
X157173000Y-139063957D01*
X157375024Y-139551685D01*
X157748315Y-139924976D01*
X158236043Y-140127000D01*
X158763957Y-140127000D01*
X159251685Y-139924976D01*
X159624976Y-139551685D01*
X159827000Y-139063957D01*
X159827000Y-138536043D01*
X159624976Y-138048315D01*
X159251685Y-137675024D01*
X158949851Y-137550000D01*
X159251685Y-137424976D01*
X159624976Y-137051685D01*
X159827000Y-136563957D01*
X159827000Y-136036043D01*
X159624976Y-135548315D01*
X159457690Y-135381029D01*
X159503177Y-135380692D01*
X159664880Y-135347593D01*
X159803065Y-135254518D01*
X160303051Y-134750814D01*
X160394497Y-134613406D01*
X160427000Y-134450000D01*
X160427000Y-132950000D01*
X160393889Y-132785134D01*
X160300814Y-132646949D01*
X159800828Y-132150653D01*
X159660493Y-132058008D01*
X159496851Y-132026716D01*
X153832579Y-132068673D01*
X153137743Y-131783873D01*
X152215546Y-130861676D01*
X151927000Y-130165063D01*
X151927000Y-97334937D01*
X152215546Y-96638324D01*
X153138324Y-95715546D01*
X153834937Y-95427000D01*
X157496339Y-95427000D01*
X157375024Y-95548315D01*
X157173000Y-96036043D01*
X157173000Y-96563957D01*
X157375024Y-97051685D01*
X157748315Y-97424976D01*
X158050149Y-97550000D01*
X157748315Y-97675024D01*
X157375024Y-98048315D01*
X157364799Y-98073000D01*
X155305923Y-98073000D01*
X155064501Y-97973000D01*
X154735499Y-97973000D01*
X154431542Y-98098903D01*
X154198903Y-98331542D01*
X154073000Y-98635499D01*
X154073000Y-98964501D01*
X154198903Y-99268458D01*
X154431542Y-99501097D01*
X154735499Y-99627000D01*
X155064501Y-99627000D01*
X155305923Y-99527000D01*
X157364799Y-99527000D01*
X157375024Y-99551685D01*
X157748315Y-99924976D01*
X158236043Y-100127000D01*
X158763957Y-100127000D01*
X159251685Y-99924976D01*
X159624976Y-99551685D01*
X159827000Y-99063957D01*
X159827000Y-98536043D01*
X159624976Y-98048315D01*
X159251685Y-97675024D01*
X158949851Y-97550000D01*
X159251685Y-97424976D01*
X159624976Y-97051685D01*
X159827000Y-96563957D01*
X159827000Y-96036043D01*
X159624976Y-95548315D01*
X159503054Y-95426393D01*
X159663406Y-95394497D01*
X159801935Y-95301935D01*
X160301935Y-94801935D01*
X160394497Y-94663406D01*
X160427000Y-94500000D01*
X160427000Y-93000000D01*
X160394497Y-92836594D01*
X160301935Y-92698065D01*
X159801935Y-92198065D01*
X159663406Y-92105503D01*
X159500000Y-92073000D01*
X153834937Y-92073000D01*
X153138324Y-91784454D01*
X152215546Y-90861676D01*
X151927000Y-90165063D01*
X151927000Y-57334937D01*
X152215546Y-56638324D01*
X153138324Y-55715546D01*
X153834937Y-55427000D01*
X157496339Y-55427000D01*
X157375024Y-55548315D01*
X157173000Y-56036043D01*
X157173000Y-56563957D01*
X157375024Y-57051685D01*
X157748315Y-57424976D01*
X158050149Y-57550000D01*
X157748315Y-57675024D01*
X157375024Y-58048315D01*
X157364799Y-58073000D01*
X155305923Y-58073000D01*
X155064501Y-57973000D01*
X154735499Y-57973000D01*
X154431542Y-58098903D01*
X154198903Y-58331542D01*
X154073000Y-58635499D01*
X154073000Y-58964501D01*
X154198903Y-59268458D01*
X154431542Y-59501097D01*
X154735499Y-59627000D01*
X155064501Y-59627000D01*
X155305923Y-59527000D01*
X157364799Y-59527000D01*
X157375024Y-59551685D01*
X157748315Y-59924976D01*
X158236043Y-60127000D01*
X158763957Y-60127000D01*
X159251685Y-59924976D01*
X159624976Y-59551685D01*
X159827000Y-59063957D01*
X159827000Y-58536043D01*
X159624976Y-58048315D01*
X159251685Y-57675024D01*
X158949851Y-57550000D01*
X159251685Y-57424976D01*
X159624976Y-57051685D01*
X159827000Y-56563957D01*
X159827000Y-56036043D01*
X159624976Y-55548315D01*
X159503054Y-55426393D01*
X159663406Y-55394497D01*
X159801935Y-55301935D01*
X160301935Y-54801935D01*
X160394497Y-54663406D01*
X160427000Y-54500000D01*
X160427000Y-53000000D01*
X160394497Y-52836594D01*
X160301935Y-52698065D01*
X159801935Y-52198065D01*
X159663406Y-52105503D01*
X159500000Y-52073000D01*
X153834937Y-52073000D01*
X153138324Y-51784454D01*
X151567100Y-50213230D01*
X151428571Y-50120668D01*
X151265165Y-50088165D01*
X151101759Y-50120668D01*
X150836594Y-50230503D01*
X150698065Y-50323065D01*
X150448130Y-50573000D01*
X148789545Y-50573000D01*
X148827225Y-50516607D01*
X148860365Y-50350000D01*
X148860365Y-49927000D01*
X154494077Y-49927000D01*
X154735499Y-50027000D01*
X155064501Y-50027000D01*
X155368458Y-49901097D01*
X155601097Y-49668458D01*
X155727000Y-49364501D01*
X155727000Y-49035499D01*
X155601097Y-48731542D01*
X155368458Y-48498903D01*
X155064501Y-48373000D01*
X154735499Y-48373000D01*
X154494077Y-48473000D01*
X148860365Y-48473000D01*
X148860365Y-48000000D01*
X148827225Y-47833393D01*
X148732850Y-47692150D01*
X148591607Y-47597775D01*
X148425000Y-47564635D01*
X147575000Y-47564635D01*
X147408393Y-47597775D01*
X147267150Y-47692150D01*
X147172775Y-47833393D01*
X147139635Y-48000000D01*
X147139635Y-48035765D01*
X146860365Y-47756495D01*
X146860365Y-47527000D01*
X154494077Y-47527000D01*
X154735499Y-47627000D01*
X155064501Y-47627000D01*
X155368458Y-47501097D01*
X155601097Y-47268458D01*
X155727000Y-46964501D01*
X155727000Y-46635499D01*
X155601097Y-46331542D01*
X155368458Y-46098903D01*
X155064501Y-45973000D01*
X154735499Y-45973000D01*
X154494077Y-46073000D01*
X146860365Y-46073000D01*
X146860365Y-45650000D01*
X146830926Y-45502000D01*
X159968414Y-45502000D01*
X160495891Y-45568636D01*
G36*
X145139635Y-45650000D02*
X145139635Y-47573000D01*
X144467054Y-47573000D01*
X144425000Y-47564635D01*
X143575000Y-47564635D01*
X143408393Y-47597775D01*
X143267150Y-47692150D01*
X143172775Y-47833393D01*
X143139635Y-48000000D01*
X143139635Y-48006495D01*
X142948065Y-48198065D01*
X142855503Y-48336594D01*
X142823000Y-48500000D01*
X142823000Y-52500000D01*
X142855503Y-52663406D01*
X142948065Y-52801935D01*
X143448065Y-53301935D01*
X143586594Y-53394497D01*
X143713625Y-53419765D01*
X143281593Y-53851797D01*
X142973000Y-54596805D01*
X142973000Y-55403195D01*
X143281593Y-56148203D01*
X143851797Y-56718407D01*
X144596805Y-57027000D01*
X145403195Y-57027000D01*
X146148203Y-56718407D01*
X146573000Y-56293610D01*
X146573000Y-93706390D01*
X146148203Y-93281593D01*
X145403195Y-92973000D01*
X144596805Y-92973000D01*
X143851797Y-93281593D01*
X143281593Y-93851797D01*
X142973000Y-94596805D01*
X142973000Y-95403195D01*
X143281593Y-96148203D01*
X143851797Y-96718407D01*
X144596805Y-97027000D01*
X145403195Y-97027000D01*
X146148203Y-96718407D01*
X146573000Y-96293610D01*
X146573000Y-133706390D01*
X146148203Y-133281593D01*
X145403195Y-132973000D01*
X144596805Y-132973000D01*
X143851797Y-133281593D01*
X143281593Y-133851797D01*
X142973000Y-134596805D01*
X142973000Y-135403195D01*
X143281593Y-136148203D01*
X143713625Y-136580235D01*
X143586594Y-136605503D01*
X143448065Y-136698065D01*
X142948065Y-137198065D01*
X142855503Y-137336594D01*
X142823000Y-137500000D01*
X142823000Y-141500000D01*
X142855503Y-141663406D01*
X142948065Y-141801935D01*
X143139635Y-141993505D01*
X143139635Y-142000000D01*
X143172775Y-142166607D01*
X143267150Y-142307850D01*
X143408393Y-142402225D01*
X143575000Y-142435365D01*
X144425000Y-142435365D01*
X144467054Y-142427000D01*
X145139635Y-142427000D01*
X145139635Y-144350000D01*
X145169074Y-144498000D01*
X142531586Y-144498000D01*
X142004110Y-144431364D01*
X141539378Y-144247364D01*
X141135006Y-143953571D01*
X140816400Y-143568442D01*
X140603584Y-143116183D01*
X140505444Y-142601718D01*
X140502000Y-142492124D01*
X140502000Y-47531586D01*
X140568636Y-47004109D01*
X140752635Y-46539379D01*
X141046427Y-46135008D01*
X141431556Y-45816401D01*
X141883818Y-45603584D01*
X142398282Y-45505444D01*
X142507875Y-45502000D01*
X145169074Y-45502000D01*
X145139635Y-45650000D01*
X145139635Y-45650000D01*
G37*
X145139635Y-45650000D02*
X145139635Y-47573000D01*
X144467054Y-47573000D01*
X144425000Y-47564635D01*
X143575000Y-47564635D01*
X143408393Y-47597775D01*
X143267150Y-47692150D01*
X143172775Y-47833393D01*
X143139635Y-48000000D01*
X143139635Y-48006495D01*
X142948065Y-48198065D01*
X142855503Y-48336594D01*
X142823000Y-48500000D01*
X142823000Y-52500000D01*
X142855503Y-52663406D01*
X142948065Y-52801935D01*
X143448065Y-53301935D01*
X143586594Y-53394497D01*
X143713625Y-53419765D01*
X143281593Y-53851797D01*
X142973000Y-54596805D01*
X142973000Y-55403195D01*
X143281593Y-56148203D01*
X143851797Y-56718407D01*
X144596805Y-57027000D01*
X145403195Y-57027000D01*
X146148203Y-56718407D01*
X146573000Y-56293610D01*
X146573000Y-93706390D01*
X146148203Y-93281593D01*
X145403195Y-92973000D01*
X144596805Y-92973000D01*
X143851797Y-93281593D01*
X143281593Y-93851797D01*
X142973000Y-94596805D01*
X142973000Y-95403195D01*
X143281593Y-96148203D01*
X143851797Y-96718407D01*
X144596805Y-97027000D01*
X145403195Y-97027000D01*
X146148203Y-96718407D01*
X146573000Y-96293610D01*
X146573000Y-133706390D01*
X146148203Y-133281593D01*
X145403195Y-132973000D01*
X144596805Y-132973000D01*
X143851797Y-133281593D01*
X143281593Y-133851797D01*
X142973000Y-134596805D01*
X142973000Y-135403195D01*
X143281593Y-136148203D01*
X143713625Y-136580235D01*
X143586594Y-136605503D01*
X143448065Y-136698065D01*
X142948065Y-137198065D01*
X142855503Y-137336594D01*
X142823000Y-137500000D01*
X142823000Y-141500000D01*
X142855503Y-141663406D01*
X142948065Y-141801935D01*
X143139635Y-141993505D01*
X143139635Y-142000000D01*
X143172775Y-142166607D01*
X143267150Y-142307850D01*
X143408393Y-142402225D01*
X143575000Y-142435365D01*
X144425000Y-142435365D01*
X144467054Y-142427000D01*
X145139635Y-142427000D01*
X145139635Y-144350000D01*
X145169074Y-144498000D01*
X142531586Y-144498000D01*
X142004110Y-144431364D01*
X141539378Y-144247364D01*
X141135006Y-143953571D01*
X140816400Y-143568442D01*
X140603584Y-143116183D01*
X140505444Y-142601718D01*
X140502000Y-142492124D01*
X140502000Y-47531586D01*
X140568636Y-47004109D01*
X140752635Y-46539379D01*
X141046427Y-46135008D01*
X141431556Y-45816401D01*
X141883818Y-45603584D01*
X142398282Y-45505444D01*
X142507875Y-45502000D01*
X145169074Y-45502000D01*
X145139635Y-45650000D01*
G36*
X157375024Y-135548315D02*
X157364799Y-135573000D01*
X156805923Y-135573000D01*
X156564501Y-135473000D01*
X156235499Y-135473000D01*
X155931542Y-135598903D01*
X155698903Y-135831542D01*
X155573000Y-136135499D01*
X155573000Y-136464501D01*
X155673001Y-136705925D01*
X155673000Y-138605132D01*
X155601097Y-138431542D01*
X155368458Y-138198903D01*
X155064501Y-138073000D01*
X154735499Y-138073000D01*
X154431542Y-138198903D01*
X154198903Y-138431542D01*
X154098903Y-138672965D01*
X152673868Y-140098000D01*
X148860365Y-140098000D01*
X148860365Y-139650000D01*
X148827225Y-139483393D01*
X148789545Y-139427000D01*
X151000000Y-139427000D01*
X151163406Y-139394497D01*
X151301935Y-139301935D01*
X151801935Y-138801935D01*
X151894497Y-138663406D01*
X151927000Y-138500000D01*
X151927000Y-137334937D01*
X152215546Y-136638324D01*
X153138905Y-135714965D01*
X153837262Y-135422661D01*
X157528016Y-135395323D01*
X157375024Y-135548315D01*
X157375024Y-135548315D01*
G37*
X157375024Y-135548315D02*
X157364799Y-135573000D01*
X156805923Y-135573000D01*
X156564501Y-135473000D01*
X156235499Y-135473000D01*
X155931542Y-135598903D01*
X155698903Y-135831542D01*
X155573000Y-136135499D01*
X155573000Y-136464501D01*
X155673001Y-136705925D01*
X155673000Y-138605132D01*
X155601097Y-138431542D01*
X155368458Y-138198903D01*
X155064501Y-138073000D01*
X154735499Y-138073000D01*
X154431542Y-138198903D01*
X154198903Y-138431542D01*
X154098903Y-138672965D01*
X152673868Y-140098000D01*
X148860365Y-140098000D01*
X148860365Y-139650000D01*
X148827225Y-139483393D01*
X148789545Y-139427000D01*
X151000000Y-139427000D01*
X151163406Y-139394497D01*
X151301935Y-139301935D01*
X151801935Y-138801935D01*
X151894497Y-138663406D01*
X151927000Y-138500000D01*
X151927000Y-137334937D01*
X152215546Y-136638324D01*
X153138905Y-135714965D01*
X153837262Y-135422661D01*
X157528016Y-135395323D01*
X157375024Y-135548315D01*
G04 #@! TD*
M02*
