G04 #@! TF.GenerationSoftware,KiCad,Pcbnew,(5.0.2)-1*
G04 #@! TF.CreationDate,2019-10-12T15:34:41+09:00*
G04 #@! TF.ProjectId,relay,72656c61-792e-46b6-9963-61645f706362,rev?*
G04 #@! TF.SameCoordinates,Original*
G04 #@! TF.FileFunction,Copper,L2,Bot*
G04 #@! TF.FilePolarity,Positive*
%FSLAX46Y46*%
G04 Gerber Fmt 4.6, Leading zero omitted, Abs format (unit mm)*
G04 Created by KiCad (PCBNEW (5.0.2)-1) date 2019/10/12 15:34:41*
%MOMM*%
%LPD*%
G01*
G04 APERTURE LIST*
G04 #@! TA.AperFunction,ComponentPad*
%ADD10R,1.800000X1.800000*%
G04 #@! TD*
G04 #@! TA.AperFunction,ComponentPad*
%ADD11C,1.800000*%
G04 #@! TD*
G04 #@! TA.AperFunction,ViaPad*
%ADD12C,0.800000*%
G04 #@! TD*
G04 #@! TA.AperFunction,Conductor*
%ADD13C,0.600000*%
G04 #@! TD*
G04 #@! TA.AperFunction,Conductor*
%ADD14C,0.254000*%
G04 #@! TD*
G04 APERTURE END LIST*
D10*
G04 #@! TO.P,J1,1*
G04 #@! TO.N,GND*
X158500000Y-91300000D03*
D11*
G04 #@! TO.P,J1,2*
G04 #@! TO.N,VCC*
X158500000Y-93800000D03*
G04 #@! TO.P,J1,3*
G04 #@! TO.N,/CANH*
X158500000Y-96300000D03*
G04 #@! TO.P,J1,4*
G04 #@! TO.N,/CANL*
X158500000Y-98800000D03*
G04 #@! TD*
G04 #@! TO.P,J2,4*
G04 #@! TO.N,/CANL*
X158500000Y-58800000D03*
G04 #@! TO.P,J2,3*
G04 #@! TO.N,/CANH*
X158500000Y-56300000D03*
G04 #@! TO.P,J2,2*
G04 #@! TO.N,VCC*
X158500000Y-53800000D03*
D10*
G04 #@! TO.P,J2,1*
G04 #@! TO.N,GND*
X158500000Y-51300000D03*
G04 #@! TD*
G04 #@! TO.P,J3,1*
G04 #@! TO.N,GND*
X158500000Y-131300000D03*
D11*
G04 #@! TO.P,J3,2*
G04 #@! TO.N,VCC*
X158500000Y-133800000D03*
G04 #@! TO.P,J3,3*
G04 #@! TO.N,/CANH*
X158500000Y-136300000D03*
G04 #@! TO.P,J3,4*
G04 #@! TO.N,/CANL*
X158500000Y-138800000D03*
G04 #@! TD*
D12*
G04 #@! TO.N,GND*
X142500000Y-140000000D03*
X142500000Y-137500000D03*
X142500000Y-135000000D03*
X142500000Y-132500000D03*
X142500000Y-130000000D03*
X142500000Y-127500000D03*
X145000000Y-130000000D03*
X145000000Y-127500000D03*
X145000000Y-125000000D03*
X142500000Y-125000000D03*
X142500000Y-122500000D03*
X145000000Y-122500000D03*
X145000000Y-120000000D03*
X142500000Y-120000000D03*
X142500000Y-117500000D03*
X145000000Y-117500000D03*
X145000000Y-115000000D03*
X142500000Y-115000000D03*
X142500000Y-112500000D03*
X145000000Y-112500000D03*
X145000000Y-110000000D03*
X142500000Y-110000000D03*
X142500000Y-107500000D03*
X145000000Y-107500000D03*
X145000000Y-105000000D03*
X142500000Y-105000000D03*
X142500000Y-102500000D03*
X145000000Y-102500000D03*
X145000000Y-100000000D03*
X142500000Y-100000000D03*
X142500000Y-97500000D03*
X145000000Y-97500000D03*
X145000000Y-132500000D03*
X145000000Y-70000000D03*
X145000000Y-75000000D03*
X145000000Y-62500000D03*
X145000000Y-82500000D03*
X142500000Y-80000000D03*
X145000000Y-60000000D03*
X142500000Y-75000000D03*
X142500000Y-72500000D03*
X145000000Y-72500000D03*
X142500000Y-85000000D03*
X145000000Y-87500000D03*
X145000000Y-80000000D03*
X145000000Y-85000000D03*
X145000000Y-77500000D03*
X145000000Y-65000000D03*
X142500000Y-62500000D03*
X142500000Y-77500000D03*
X142500000Y-90000000D03*
X142500000Y-82500000D03*
X142500000Y-87500000D03*
X145000000Y-67500000D03*
X142500000Y-70000000D03*
X142500000Y-65000000D03*
X145000000Y-90000000D03*
X142500000Y-67500000D03*
X142500000Y-92500000D03*
X142500000Y-60000000D03*
X145000000Y-57500000D03*
X145000000Y-92500000D03*
X142500000Y-57500000D03*
X152500000Y-87500000D03*
X152500000Y-65000000D03*
X152500000Y-62500000D03*
X152500000Y-75000000D03*
X152500000Y-70000000D03*
X152500000Y-82500000D03*
X152500000Y-67500000D03*
X152500000Y-85000000D03*
X152500000Y-72500000D03*
X152500000Y-77500000D03*
X152500000Y-80000000D03*
X152500000Y-60000000D03*
X152500000Y-57500000D03*
X152500000Y-90000000D03*
X152500000Y-110000000D03*
X152500000Y-107500000D03*
X152500000Y-105000000D03*
X152500000Y-102500000D03*
X152500000Y-122500000D03*
X152500000Y-112500000D03*
X152500000Y-125000000D03*
X152500000Y-117500000D03*
X152500000Y-127500000D03*
X152500000Y-115000000D03*
X152500000Y-120000000D03*
X152500000Y-130000000D03*
X152500000Y-100000000D03*
X152500000Y-97500000D03*
X152500000Y-137500000D03*
X157500000Y-47500000D03*
X157500000Y-62500000D03*
X157500000Y-65000000D03*
X157500000Y-67500000D03*
X157500000Y-70000000D03*
X157500000Y-72500000D03*
X157500000Y-75000000D03*
X157500000Y-77500000D03*
X157500000Y-80000000D03*
X157500000Y-82500000D03*
X157500000Y-85000000D03*
X157500000Y-87500000D03*
X157500000Y-102500000D03*
X157500000Y-105000000D03*
X157500000Y-107500000D03*
X157500000Y-110000000D03*
X157500000Y-112500000D03*
X157500000Y-115000000D03*
X157500000Y-117500000D03*
X157500000Y-120000000D03*
X157500000Y-122500000D03*
X157500000Y-125000000D03*
X157500000Y-127500000D03*
G04 #@! TO.N,/CANH*
X156400000Y-136300000D03*
X154900000Y-46800000D03*
G04 #@! TO.N,/CANL*
X154900000Y-138900000D03*
X154900000Y-49200000D03*
X154900000Y-98800000D03*
X154900000Y-58800000D03*
G04 #@! TD*
D13*
G04 #@! TO.N,/CANH*
X156400000Y-136300000D02*
X156400000Y-135734315D01*
X156400000Y-135734315D02*
X156400000Y-120000000D01*
X156400000Y-120000000D02*
X156400000Y-97600000D01*
X156400000Y-97600000D02*
X156400000Y-58400000D01*
X156400000Y-48300000D02*
X154900000Y-46800000D01*
X156400000Y-97127208D02*
X156400000Y-97600000D01*
X157227208Y-96300000D02*
X156400000Y-97127208D01*
X158500000Y-96300000D02*
X157227208Y-96300000D01*
X156400000Y-57127208D02*
X156400000Y-57300000D01*
X157227208Y-56300000D02*
X156400000Y-57127208D01*
X158500000Y-56300000D02*
X157227208Y-56300000D01*
X156400000Y-58400000D02*
X156400000Y-57300000D01*
X156400000Y-57300000D02*
X156400000Y-48300000D01*
G04 #@! TO.N,/CANL*
X158400000Y-138900000D02*
X158500000Y-138800000D01*
X154900000Y-138900000D02*
X158400000Y-138900000D01*
X154900000Y-138900000D02*
X154900000Y-49200000D01*
G04 #@! TD*
D14*
G04 #@! TO.N,GND*
G36*
X160495891Y-45568636D02*
X160960621Y-45752635D01*
X161364992Y-46046427D01*
X161683599Y-46431556D01*
X161896416Y-46883818D01*
X161994556Y-47398282D01*
X161998000Y-47507875D01*
X161998001Y-142468406D01*
X161931364Y-142995890D01*
X161747364Y-143460622D01*
X161453571Y-143864994D01*
X161068442Y-144183600D01*
X160616183Y-144396416D01*
X160101718Y-144494556D01*
X159992124Y-144498000D01*
X142531586Y-144498000D01*
X142004110Y-144431364D01*
X141539378Y-144247364D01*
X141135006Y-143953571D01*
X140816400Y-143568442D01*
X140603584Y-143116183D01*
X140505444Y-142601718D01*
X140502000Y-142492124D01*
X140502000Y-134596805D01*
X142973000Y-134596805D01*
X142973000Y-135403195D01*
X143281593Y-136148203D01*
X143851797Y-136718407D01*
X144596805Y-137027000D01*
X145403195Y-137027000D01*
X146148203Y-136718407D01*
X146718407Y-136148203D01*
X147027000Y-135403195D01*
X147027000Y-134596805D01*
X146718407Y-133851797D01*
X146148203Y-133281593D01*
X145403195Y-132973000D01*
X144596805Y-132973000D01*
X143851797Y-133281593D01*
X143281593Y-133851797D01*
X142973000Y-134596805D01*
X140502000Y-134596805D01*
X140502000Y-94596805D01*
X142973000Y-94596805D01*
X142973000Y-95403195D01*
X143281593Y-96148203D01*
X143851797Y-96718407D01*
X144596805Y-97027000D01*
X145403195Y-97027000D01*
X146148203Y-96718407D01*
X146718407Y-96148203D01*
X147027000Y-95403195D01*
X147027000Y-94596805D01*
X146718407Y-93851797D01*
X146148203Y-93281593D01*
X145403195Y-92973000D01*
X144596805Y-92973000D01*
X143851797Y-93281593D01*
X143281593Y-93851797D01*
X142973000Y-94596805D01*
X140502000Y-94596805D01*
X140502000Y-54596805D01*
X142973000Y-54596805D01*
X142973000Y-55403195D01*
X143281593Y-56148203D01*
X143851797Y-56718407D01*
X144596805Y-57027000D01*
X145403195Y-57027000D01*
X146148203Y-56718407D01*
X146718407Y-56148203D01*
X147027000Y-55403195D01*
X147027000Y-54596805D01*
X146718407Y-53851797D01*
X146148203Y-53281593D01*
X145403195Y-52973000D01*
X144596805Y-52973000D01*
X143851797Y-53281593D01*
X143281593Y-53851797D01*
X142973000Y-54596805D01*
X140502000Y-54596805D01*
X140502000Y-47531586D01*
X140568636Y-47004109D01*
X140714578Y-46635499D01*
X154073000Y-46635499D01*
X154073000Y-46964501D01*
X154198903Y-47268458D01*
X154431542Y-47501097D01*
X154672966Y-47601098D01*
X155673001Y-48601134D01*
X155673001Y-48905134D01*
X155601097Y-48731542D01*
X155368458Y-48498903D01*
X155064501Y-48373000D01*
X154735499Y-48373000D01*
X154431542Y-48498903D01*
X154198903Y-48731542D01*
X154073000Y-49035499D01*
X154073000Y-49364501D01*
X154173001Y-49605925D01*
X154173001Y-58394075D01*
X154073000Y-58635499D01*
X154073000Y-58964501D01*
X154173001Y-59205925D01*
X154173000Y-98394076D01*
X154073000Y-98635499D01*
X154073000Y-98964501D01*
X154173000Y-99205924D01*
X154173000Y-138494077D01*
X154073000Y-138735499D01*
X154073000Y-139064501D01*
X154198903Y-139368458D01*
X154431542Y-139601097D01*
X154735499Y-139727000D01*
X155064501Y-139727000D01*
X155305923Y-139627000D01*
X157450339Y-139627000D01*
X157748315Y-139924976D01*
X158236043Y-140127000D01*
X158763957Y-140127000D01*
X159251685Y-139924976D01*
X159624976Y-139551685D01*
X159827000Y-139063957D01*
X159827000Y-138536043D01*
X159624976Y-138048315D01*
X159251685Y-137675024D01*
X158949851Y-137550000D01*
X159251685Y-137424976D01*
X159624976Y-137051685D01*
X159827000Y-136563957D01*
X159827000Y-136036043D01*
X159624976Y-135548315D01*
X159251685Y-135175024D01*
X158949851Y-135050000D01*
X159251685Y-134924976D01*
X159624976Y-134551685D01*
X159827000Y-134063957D01*
X159827000Y-133536043D01*
X159624976Y-133048315D01*
X159251685Y-132675024D01*
X158763957Y-132473000D01*
X158236043Y-132473000D01*
X157748315Y-132675024D01*
X157375024Y-133048315D01*
X157173000Y-133536043D01*
X157173000Y-134063957D01*
X157375024Y-134551685D01*
X157748315Y-134924976D01*
X158050149Y-135050000D01*
X157748315Y-135175024D01*
X157375024Y-135548315D01*
X157179402Y-136020587D01*
X157127000Y-135894077D01*
X157127000Y-97428340D01*
X157439340Y-97116001D01*
X157748315Y-97424976D01*
X158050149Y-97550000D01*
X157748315Y-97675024D01*
X157375024Y-98048315D01*
X157173000Y-98536043D01*
X157173000Y-99063957D01*
X157375024Y-99551685D01*
X157748315Y-99924976D01*
X158236043Y-100127000D01*
X158763957Y-100127000D01*
X159251685Y-99924976D01*
X159624976Y-99551685D01*
X159827000Y-99063957D01*
X159827000Y-98536043D01*
X159624976Y-98048315D01*
X159251685Y-97675024D01*
X158949851Y-97550000D01*
X159251685Y-97424976D01*
X159624976Y-97051685D01*
X159827000Y-96563957D01*
X159827000Y-96036043D01*
X159624976Y-95548315D01*
X159251685Y-95175024D01*
X158949851Y-95050000D01*
X159251685Y-94924976D01*
X159624976Y-94551685D01*
X159827000Y-94063957D01*
X159827000Y-93536043D01*
X159624976Y-93048315D01*
X159251685Y-92675024D01*
X158763957Y-92473000D01*
X158236043Y-92473000D01*
X157748315Y-92675024D01*
X157375024Y-93048315D01*
X157173000Y-93536043D01*
X157173000Y-94063957D01*
X157375024Y-94551685D01*
X157748315Y-94924976D01*
X158050149Y-95050000D01*
X157748315Y-95175024D01*
X157375024Y-95548315D01*
X157364799Y-95573000D01*
X157298803Y-95573000D01*
X157227208Y-95558759D01*
X157155613Y-95573000D01*
X157155609Y-95573000D01*
X157127000Y-95578691D01*
X157127000Y-57428340D01*
X157439340Y-57116001D01*
X157748315Y-57424976D01*
X158050149Y-57550000D01*
X157748315Y-57675024D01*
X157375024Y-58048315D01*
X157173000Y-58536043D01*
X157173000Y-59063957D01*
X157375024Y-59551685D01*
X157748315Y-59924976D01*
X158236043Y-60127000D01*
X158763957Y-60127000D01*
X159251685Y-59924976D01*
X159624976Y-59551685D01*
X159827000Y-59063957D01*
X159827000Y-58536043D01*
X159624976Y-58048315D01*
X159251685Y-57675024D01*
X158949851Y-57550000D01*
X159251685Y-57424976D01*
X159624976Y-57051685D01*
X159827000Y-56563957D01*
X159827000Y-56036043D01*
X159624976Y-55548315D01*
X159251685Y-55175024D01*
X158949851Y-55050000D01*
X159251685Y-54924976D01*
X159624976Y-54551685D01*
X159827000Y-54063957D01*
X159827000Y-53536043D01*
X159624976Y-53048315D01*
X159251685Y-52675024D01*
X158763957Y-52473000D01*
X158236043Y-52473000D01*
X157748315Y-52675024D01*
X157375024Y-53048315D01*
X157173000Y-53536043D01*
X157173000Y-54063957D01*
X157375024Y-54551685D01*
X157748315Y-54924976D01*
X158050149Y-55050000D01*
X157748315Y-55175024D01*
X157375024Y-55548315D01*
X157364799Y-55573000D01*
X157298803Y-55573000D01*
X157227208Y-55558759D01*
X157155613Y-55573000D01*
X157155609Y-55573000D01*
X157127000Y-55578691D01*
X157127000Y-48371593D01*
X157141241Y-48299999D01*
X157127000Y-48228405D01*
X157127000Y-48228401D01*
X157084818Y-48016339D01*
X156924137Y-47775863D01*
X156863438Y-47735305D01*
X155701098Y-46572966D01*
X155601097Y-46331542D01*
X155368458Y-46098903D01*
X155064501Y-45973000D01*
X154735499Y-45973000D01*
X154431542Y-46098903D01*
X154198903Y-46331542D01*
X154073000Y-46635499D01*
X140714578Y-46635499D01*
X140752635Y-46539379D01*
X141046427Y-46135008D01*
X141431556Y-45816401D01*
X141883818Y-45603584D01*
X142398282Y-45505444D01*
X142507875Y-45502000D01*
X159968414Y-45502000D01*
X160495891Y-45568636D01*
X160495891Y-45568636D01*
G37*
X160495891Y-45568636D02*
X160960621Y-45752635D01*
X161364992Y-46046427D01*
X161683599Y-46431556D01*
X161896416Y-46883818D01*
X161994556Y-47398282D01*
X161998000Y-47507875D01*
X161998001Y-142468406D01*
X161931364Y-142995890D01*
X161747364Y-143460622D01*
X161453571Y-143864994D01*
X161068442Y-144183600D01*
X160616183Y-144396416D01*
X160101718Y-144494556D01*
X159992124Y-144498000D01*
X142531586Y-144498000D01*
X142004110Y-144431364D01*
X141539378Y-144247364D01*
X141135006Y-143953571D01*
X140816400Y-143568442D01*
X140603584Y-143116183D01*
X140505444Y-142601718D01*
X140502000Y-142492124D01*
X140502000Y-134596805D01*
X142973000Y-134596805D01*
X142973000Y-135403195D01*
X143281593Y-136148203D01*
X143851797Y-136718407D01*
X144596805Y-137027000D01*
X145403195Y-137027000D01*
X146148203Y-136718407D01*
X146718407Y-136148203D01*
X147027000Y-135403195D01*
X147027000Y-134596805D01*
X146718407Y-133851797D01*
X146148203Y-133281593D01*
X145403195Y-132973000D01*
X144596805Y-132973000D01*
X143851797Y-133281593D01*
X143281593Y-133851797D01*
X142973000Y-134596805D01*
X140502000Y-134596805D01*
X140502000Y-94596805D01*
X142973000Y-94596805D01*
X142973000Y-95403195D01*
X143281593Y-96148203D01*
X143851797Y-96718407D01*
X144596805Y-97027000D01*
X145403195Y-97027000D01*
X146148203Y-96718407D01*
X146718407Y-96148203D01*
X147027000Y-95403195D01*
X147027000Y-94596805D01*
X146718407Y-93851797D01*
X146148203Y-93281593D01*
X145403195Y-92973000D01*
X144596805Y-92973000D01*
X143851797Y-93281593D01*
X143281593Y-93851797D01*
X142973000Y-94596805D01*
X140502000Y-94596805D01*
X140502000Y-54596805D01*
X142973000Y-54596805D01*
X142973000Y-55403195D01*
X143281593Y-56148203D01*
X143851797Y-56718407D01*
X144596805Y-57027000D01*
X145403195Y-57027000D01*
X146148203Y-56718407D01*
X146718407Y-56148203D01*
X147027000Y-55403195D01*
X147027000Y-54596805D01*
X146718407Y-53851797D01*
X146148203Y-53281593D01*
X145403195Y-52973000D01*
X144596805Y-52973000D01*
X143851797Y-53281593D01*
X143281593Y-53851797D01*
X142973000Y-54596805D01*
X140502000Y-54596805D01*
X140502000Y-47531586D01*
X140568636Y-47004109D01*
X140714578Y-46635499D01*
X154073000Y-46635499D01*
X154073000Y-46964501D01*
X154198903Y-47268458D01*
X154431542Y-47501097D01*
X154672966Y-47601098D01*
X155673001Y-48601134D01*
X155673001Y-48905134D01*
X155601097Y-48731542D01*
X155368458Y-48498903D01*
X155064501Y-48373000D01*
X154735499Y-48373000D01*
X154431542Y-48498903D01*
X154198903Y-48731542D01*
X154073000Y-49035499D01*
X154073000Y-49364501D01*
X154173001Y-49605925D01*
X154173001Y-58394075D01*
X154073000Y-58635499D01*
X154073000Y-58964501D01*
X154173001Y-59205925D01*
X154173000Y-98394076D01*
X154073000Y-98635499D01*
X154073000Y-98964501D01*
X154173000Y-99205924D01*
X154173000Y-138494077D01*
X154073000Y-138735499D01*
X154073000Y-139064501D01*
X154198903Y-139368458D01*
X154431542Y-139601097D01*
X154735499Y-139727000D01*
X155064501Y-139727000D01*
X155305923Y-139627000D01*
X157450339Y-139627000D01*
X157748315Y-139924976D01*
X158236043Y-140127000D01*
X158763957Y-140127000D01*
X159251685Y-139924976D01*
X159624976Y-139551685D01*
X159827000Y-139063957D01*
X159827000Y-138536043D01*
X159624976Y-138048315D01*
X159251685Y-137675024D01*
X158949851Y-137550000D01*
X159251685Y-137424976D01*
X159624976Y-137051685D01*
X159827000Y-136563957D01*
X159827000Y-136036043D01*
X159624976Y-135548315D01*
X159251685Y-135175024D01*
X158949851Y-135050000D01*
X159251685Y-134924976D01*
X159624976Y-134551685D01*
X159827000Y-134063957D01*
X159827000Y-133536043D01*
X159624976Y-133048315D01*
X159251685Y-132675024D01*
X158763957Y-132473000D01*
X158236043Y-132473000D01*
X157748315Y-132675024D01*
X157375024Y-133048315D01*
X157173000Y-133536043D01*
X157173000Y-134063957D01*
X157375024Y-134551685D01*
X157748315Y-134924976D01*
X158050149Y-135050000D01*
X157748315Y-135175024D01*
X157375024Y-135548315D01*
X157179402Y-136020587D01*
X157127000Y-135894077D01*
X157127000Y-97428340D01*
X157439340Y-97116001D01*
X157748315Y-97424976D01*
X158050149Y-97550000D01*
X157748315Y-97675024D01*
X157375024Y-98048315D01*
X157173000Y-98536043D01*
X157173000Y-99063957D01*
X157375024Y-99551685D01*
X157748315Y-99924976D01*
X158236043Y-100127000D01*
X158763957Y-100127000D01*
X159251685Y-99924976D01*
X159624976Y-99551685D01*
X159827000Y-99063957D01*
X159827000Y-98536043D01*
X159624976Y-98048315D01*
X159251685Y-97675024D01*
X158949851Y-97550000D01*
X159251685Y-97424976D01*
X159624976Y-97051685D01*
X159827000Y-96563957D01*
X159827000Y-96036043D01*
X159624976Y-95548315D01*
X159251685Y-95175024D01*
X158949851Y-95050000D01*
X159251685Y-94924976D01*
X159624976Y-94551685D01*
X159827000Y-94063957D01*
X159827000Y-93536043D01*
X159624976Y-93048315D01*
X159251685Y-92675024D01*
X158763957Y-92473000D01*
X158236043Y-92473000D01*
X157748315Y-92675024D01*
X157375024Y-93048315D01*
X157173000Y-93536043D01*
X157173000Y-94063957D01*
X157375024Y-94551685D01*
X157748315Y-94924976D01*
X158050149Y-95050000D01*
X157748315Y-95175024D01*
X157375024Y-95548315D01*
X157364799Y-95573000D01*
X157298803Y-95573000D01*
X157227208Y-95558759D01*
X157155613Y-95573000D01*
X157155609Y-95573000D01*
X157127000Y-95578691D01*
X157127000Y-57428340D01*
X157439340Y-57116001D01*
X157748315Y-57424976D01*
X158050149Y-57550000D01*
X157748315Y-57675024D01*
X157375024Y-58048315D01*
X157173000Y-58536043D01*
X157173000Y-59063957D01*
X157375024Y-59551685D01*
X157748315Y-59924976D01*
X158236043Y-60127000D01*
X158763957Y-60127000D01*
X159251685Y-59924976D01*
X159624976Y-59551685D01*
X159827000Y-59063957D01*
X159827000Y-58536043D01*
X159624976Y-58048315D01*
X159251685Y-57675024D01*
X158949851Y-57550000D01*
X159251685Y-57424976D01*
X159624976Y-57051685D01*
X159827000Y-56563957D01*
X159827000Y-56036043D01*
X159624976Y-55548315D01*
X159251685Y-55175024D01*
X158949851Y-55050000D01*
X159251685Y-54924976D01*
X159624976Y-54551685D01*
X159827000Y-54063957D01*
X159827000Y-53536043D01*
X159624976Y-53048315D01*
X159251685Y-52675024D01*
X158763957Y-52473000D01*
X158236043Y-52473000D01*
X157748315Y-52675024D01*
X157375024Y-53048315D01*
X157173000Y-53536043D01*
X157173000Y-54063957D01*
X157375024Y-54551685D01*
X157748315Y-54924976D01*
X158050149Y-55050000D01*
X157748315Y-55175024D01*
X157375024Y-55548315D01*
X157364799Y-55573000D01*
X157298803Y-55573000D01*
X157227208Y-55558759D01*
X157155613Y-55573000D01*
X157155609Y-55573000D01*
X157127000Y-55578691D01*
X157127000Y-48371593D01*
X157141241Y-48299999D01*
X157127000Y-48228405D01*
X157127000Y-48228401D01*
X157084818Y-48016339D01*
X156924137Y-47775863D01*
X156863438Y-47735305D01*
X155701098Y-46572966D01*
X155601097Y-46331542D01*
X155368458Y-46098903D01*
X155064501Y-45973000D01*
X154735499Y-45973000D01*
X154431542Y-46098903D01*
X154198903Y-46331542D01*
X154073000Y-46635499D01*
X140714578Y-46635499D01*
X140752635Y-46539379D01*
X141046427Y-46135008D01*
X141431556Y-45816401D01*
X141883818Y-45603584D01*
X142398282Y-45505444D01*
X142507875Y-45502000D01*
X159968414Y-45502000D01*
X160495891Y-45568636D01*
G04 #@! TD*
M02*
