M48
;DRILL file {KiCad (5.0.2)-1} date 2019/10/12 15:34:43
;FORMAT={-:-/ absolute / inch / decimal}
FMAT,2
INCH,TZ
T1C0.0157
T2C0.0354
T3C0.1260
%
G90
G05
T1
X5.6102Y-2.2638
X5.6102Y-2.3622
X5.6102Y-2.4606
X5.6102Y-2.5591
X5.6102Y-2.6575
X5.6102Y-2.7559
X5.6102Y-2.8543
X5.6102Y-2.9528
X5.6102Y-3.0512
X5.6102Y-3.1496
X5.6102Y-3.248
X5.6102Y-3.3465
X5.6102Y-3.4449
X5.6102Y-3.5433
X5.6102Y-3.6417
X5.6102Y-3.8386
X5.6102Y-3.937
X5.6102Y-4.0354
X5.6102Y-4.1339
X5.6102Y-4.2323
X5.6102Y-4.3307
X5.6102Y-4.4291
X5.6102Y-4.5276
X5.6102Y-4.626
X5.6102Y-4.7244
X5.6102Y-4.8228
X5.6102Y-4.9213
X5.6102Y-5.0197
X5.6102Y-5.1181
X5.6102Y-5.2165
X5.6102Y-5.315
X5.6102Y-5.4134
X5.6102Y-5.5118
X5.7087Y-2.2638
X5.7087Y-2.3622
X5.7087Y-2.4606
X5.7087Y-2.5591
X5.7087Y-2.6575
X5.7087Y-2.7559
X5.7087Y-2.8543
X5.7087Y-2.9528
X5.7087Y-3.0512
X5.7087Y-3.1496
X5.7087Y-3.248
X5.7087Y-3.3465
X5.7087Y-3.4449
X5.7087Y-3.5433
X5.7087Y-3.6417
X5.7087Y-3.8386
X5.7087Y-3.937
X5.7087Y-4.0354
X5.7087Y-4.1339
X5.7087Y-4.2323
X5.7087Y-4.3307
X5.7087Y-4.4291
X5.7087Y-4.5276
X5.7087Y-4.626
X5.7087Y-4.7244
X5.7087Y-4.8228
X5.7087Y-4.9213
X5.7087Y-5.0197
X5.7087Y-5.1181
X5.7087Y-5.2165
X6.0039Y-2.2638
X6.0039Y-2.3622
X6.0039Y-2.4606
X6.0039Y-2.5591
X6.0039Y-2.6575
X6.0039Y-2.7559
X6.0039Y-2.8543
X6.0039Y-2.9528
X6.0039Y-3.0512
X6.0039Y-3.1496
X6.0039Y-3.248
X6.0039Y-3.3465
X6.0039Y-3.4449
X6.0039Y-3.5433
X6.0039Y-3.8386
X6.0039Y-3.937
X6.0039Y-4.0354
X6.0039Y-4.1339
X6.0039Y-4.2323
X6.0039Y-4.3307
X6.0039Y-4.4291
X6.0039Y-4.5276
X6.0039Y-4.626
X6.0039Y-4.7244
X6.0039Y-4.8228
X6.0039Y-4.9213
X6.0039Y-5.0197
X6.0039Y-5.1181
X6.0039Y-5.4134
X6.0984Y-1.8425
X6.0984Y-1.937
X6.0984Y-2.315
X6.0984Y-3.8898
X6.0984Y-5.4685
X6.1575Y-5.3661
X6.2008Y-1.8701
X6.2008Y-2.4606
X6.2008Y-2.5591
X6.2008Y-2.6575
X6.2008Y-2.7559
X6.2008Y-2.8543
X6.2008Y-2.9528
X6.2008Y-3.0512
X6.2008Y-3.1496
X6.2008Y-3.248
X6.2008Y-3.3465
X6.2008Y-3.4449
X6.2008Y-4.0354
X6.2008Y-4.1339
X6.2008Y-4.2323
X6.2008Y-4.3307
X6.2008Y-4.4291
X6.2008Y-4.5276
X6.2008Y-4.626
X6.2008Y-4.7244
X6.2008Y-4.8228
X6.2008Y-4.9213
X6.2008Y-5.0197
T2
X6.2402Y-2.0197
X6.2402Y-2.1181
X6.2402Y-2.2165
X6.2402Y-2.315
X6.2402Y-3.5945
X6.2402Y-3.6929
X6.2402Y-3.7913
X6.2402Y-3.8898
X6.2402Y-5.1693
X6.2402Y-5.2677
X6.2402Y-5.3661
X6.2402Y-5.4646
T3
X5.7087Y-3.7402
X5.7087Y-2.1654
X5.7087Y-5.315
T0
M30
